<svg width="27" height="16" viewBox="0 0 27 16" fill="none" xmlns="http://www.w3.org/2000/svg">
<path d="M4.66 8.64L7.94 10.56L8.94 11.76L8 13.74L1 10.28L2.45869e-06 9.08V6.4L7 2.93999L8 4.14L8.94 6.12L4.66 8.64ZM2.54 7.98V7.5L7.3 4.72L6.78 3.59999L0.540003 6.64V8.84L6.78 11.88L7.3 10.76L2.54 7.98ZM14.4953 15.18H11.2353L10.2353 13.98L12.3353 -5.48363e-06H15.5953L16.5953 1.19999L14.4953 15.18ZM10.9953 13.44H12.9153L14.8553 0.539995H12.9153L10.9953 13.44ZM17.6497 10.56L21.9097 8.04L18.6497 6.12L17.6497 4.92L18.5897 2.93999L25.5897 6.4L26.5897 7.6V10.18L19.5897 13.74L18.5897 12.54L17.6497 10.56ZM23.0497 7.5V7.98L18.2897 10.76L18.8097 11.88L25.0497 8.84V6.64L18.8097 3.59999L18.2897 4.72L23.0497 7.5Z" fill="#00FF3C"/>
</svg>
