<svg width="236" height="50" viewBox="0 0 236 50" fill="none" xmlns="http://www.w3.org/2000/svg">
<path d="M20.4 5.66401L19.584 11.28H7.87201V19.248H18.096V24.768H7.87201V33.264H20.4V38.928H5.126e-06V5.66401H20.4ZM52.8289 12.624C54.8449 12.624 56.4609 13.312 57.6769 14.688C58.8929 16.032 59.5009 17.904 59.5009 20.304V38.928H51.9169V21.6C51.9169 19.328 51.1969 18.192 49.7569 18.192C48.9569 18.192 48.2529 18.464 47.6449 19.008C47.0369 19.552 46.4449 20.384 45.8689 21.504V38.928H38.2849V21.6C38.2849 19.328 37.5649 18.192 36.1249 18.192C35.3569 18.192 34.6529 18.48 34.0129 19.056C33.4049 19.6 32.8129 20.416 32.2369 21.504V38.928H24.6529V13.44H31.2769L31.8049 16.416C32.7969 15.136 33.8849 14.192 35.0689 13.584C36.2849 12.944 37.6609 12.624 39.1969 12.624C40.6369 12.624 41.8689 12.976 42.8929 13.68C43.9489 14.384 44.7169 15.376 45.1969 16.656C46.2209 15.28 47.3409 14.272 48.5569 13.632C49.8049 12.96 51.2289 12.624 52.8289 12.624ZM72.7838 13.44V38.928H65.1998V13.44H72.7838ZM68.9438 6.67572e-06C70.2558 6.67572e-06 71.3278 0.416007 72.1598 1.24801C73.0238 2.04801 73.4558 3.07201 73.4558 4.32001C73.4558 5.56801 73.0238 6.60801 72.1598 7.44001C71.3278 8.24001 70.2558 8.64001 68.9438 8.64001C67.6318 8.64001 66.5598 8.24001 65.7278 7.44001C64.8958 6.60801 64.4798 5.56801 64.4798 4.32001C64.4798 3.07201 64.8958 2.04801 65.7278 1.24801C66.5598 0.416007 67.6318 6.67572e-06 68.9438 6.67572e-06ZM85.5146 39.744C83.3066 39.744 81.5786 39.12 80.3306 37.872C79.1146 36.592 78.5066 34.784 78.5066 32.448V3.31201L86.0906 2.49601V32.16C86.0906 33.216 86.5226 33.744 87.3866 33.744C87.8346 33.744 88.2506 33.664 88.6346 33.504L90.1226 38.88C88.7466 39.456 87.2106 39.744 85.5146 39.744ZM106.592 38.976C105.568 42.272 103.888 44.8 101.552 46.56C99.2479 48.352 96.1439 49.36 92.2399 49.584L91.4239 44.256C93.8559 43.936 95.6479 43.392 96.7999 42.624C97.9839 41.856 98.9279 40.624 99.6319 38.928H97.0399L89.2639 13.44H97.3279L101.888 34.08L106.88 13.44H114.704L106.592 38.976ZM128.906 38.928V5.66401H148.73L147.914 11.28H136.778V20.112H146.474V25.728H136.778V38.928H128.906ZM158.331 13.44V38.928H150.747V13.44H158.331ZM154.491 6.67572e-06C155.803 6.67572e-06 156.875 0.416007 157.707 1.24801C158.571 2.04801 159.003 3.07201 159.003 4.32001C159.003 5.56801 158.571 6.60801 157.707 7.44001C156.875 8.24001 155.803 8.64001 154.491 8.64001C153.179 8.64001 152.107 8.24001 151.275 7.44001C150.443 6.60801 150.027 5.56801 150.027 4.32001C150.027 3.07201 150.443 2.04801 151.275 1.24801C152.107 0.416007 153.179 6.67572e-06 154.491 6.67572e-06ZM171.878 13.44V38.928H164.294V13.44H171.878ZM168.038 6.67572e-06C169.35 6.67572e-06 170.422 0.416007 171.254 1.24801C172.118 2.04801 172.55 3.07201 172.55 4.32001C172.55 5.56801 172.118 6.60801 171.254 7.44001C170.422 8.24001 169.35 8.64001 168.038 8.64001C166.726 8.64001 165.654 8.24001 164.822 7.44001C163.99 6.60801 163.574 5.56801 163.574 4.32001C163.574 3.07201 163.99 2.04801 164.822 1.24801C165.654 0.416007 166.726 6.67572e-06 168.038 6.67572e-06ZM191.664 12.72C192.592 12.72 193.44 12.832 194.208 13.056L193.008 20.4C192.048 20.176 191.28 20.064 190.704 20.064C189.2 20.064 188.048 20.592 187.248 21.648C186.48 22.672 185.872 24.224 185.424 26.304V38.928H177.84V13.44H184.464L185.088 18.384C185.664 16.624 186.528 15.248 187.68 14.256C188.864 13.232 190.192 12.72 191.664 12.72ZM205.52 12.624C207.344 12.624 209.056 12.896 210.656 13.44C212.256 13.984 213.664 14.752 214.88 15.744L212.096 20.016C210.016 18.704 207.92 18.048 205.808 18.048C204.816 18.048 204.048 18.224 203.504 18.576C202.992 18.896 202.736 19.36 202.736 19.968C202.736 20.448 202.848 20.848 203.072 21.168C203.328 21.456 203.824 21.76 204.56 22.08C205.296 22.4 206.432 22.784 207.968 23.232C210.624 24 212.592 25.008 213.872 26.256C215.184 27.472 215.84 29.168 215.84 31.344C215.84 33.072 215.344 34.576 214.352 35.856C213.36 37.104 212 38.064 210.272 38.736C208.544 39.408 206.624 39.744 204.512 39.744C202.368 39.744 200.368 39.408 198.512 38.736C196.688 38.064 195.136 37.136 193.856 35.952L197.552 31.824C199.696 33.488 201.952 34.32 204.32 34.32C205.472 34.32 206.368 34.112 207.008 33.696C207.68 33.28 208.016 32.688 208.016 31.92C208.016 31.312 207.888 30.832 207.632 30.48C207.376 30.128 206.88 29.808 206.144 29.52C205.408 29.2 204.24 28.816 202.64 28.368C200.112 27.632 198.224 26.608 196.976 25.296C195.728 23.984 195.104 22.352 195.104 20.4C195.104 18.928 195.52 17.616 196.352 16.464C197.216 15.28 198.432 14.352 200 13.68C201.6 12.976 203.44 12.624 205.52 12.624ZM235.731 37.728C234.803 38.368 233.715 38.864 232.467 39.216C231.251 39.568 230.035 39.744 228.819 39.744C223.251 39.712 220.467 36.64 220.467 30.528V18.72H216.867V13.44H220.467V7.92001L228.051 7.05601V13.44H233.907L233.091 18.72H228.051V30.432C228.051 31.616 228.243 32.464 228.627 32.976C229.011 33.488 229.619 33.744 230.451 33.744C231.315 33.744 232.227 33.472 233.187 32.928L235.731 37.728Z" fill="#141414"/>
</svg>
